<svg width="98" height="75" viewBox="0 0 98 75" fill="none" xmlns="http://www.w3.org/2000/svg">
<path d="M33.8 32.6C37.5333 34.3333 40.4 36.9333 42.4 40.4C44.5333 43.7333 45.6 47.6667 45.6 52.2C45.6 58.8667 43.4667 64.2667 39.2 68.4C34.9333 72.5333 29.4667 74.6 22.8 74.6C16.1333 74.6 10.6667 72.5333 6.4 68.4C2.13333 64.2667 0 58.8667 0 52.2C0 49.1333 0.4 46.0667 1.2 43C2 39.9333 3.8 35.4 6.6 29.4L19.4 0H43.2L33.8 32.6ZM86.2 32.6C89.9333 34.3333 92.8 36.9333 94.8 40.4C96.9333 43.7333 98 47.6667 98 52.2C98 58.8667 95.8667 64.2667 91.6 68.4C87.3333 72.5333 81.8667 74.6 75.2 74.6C68.5333 74.6 63.0667 72.5333 58.8 68.4C54.5333 64.2667 52.4 58.8667 52.4 52.2C52.4 49.1333 52.8 46.0667 53.6 43C54.4 39.9333 56.2 35.4 59 29.4L71.8 0H95.6L86.2 32.6Z" fill="white"/>
</svg>
